<svg width="150" height="150" viewBox="0 0 150 150" fill="none" xmlns="http://www.w3.org/2000/svg">
  <!-- Fox Character -->
  <ellipse cx="75" cy="85" rx="45" ry="40" fill="#FF9966" />

  <!-- Ears -->
  <path d="M40 60 Q30 30 50 45" fill="#FF9966" stroke="#FF7733" stroke-width="3" />
  <path d="M110 60 Q120 30 100 45" fill="#FF9966" stroke="#FF7733" stroke-width="3" />

  <!-- Inner Ears -->
  <path d="M42 55 Q35 35 48 45" fill="#FFFFFF" />
  <path d="M108 55 Q115 35 102 45" fill="#FFFFFF" />

  <!-- Tail -->
  <path d="M105 100 Q130 90 120 120" fill="#FF9966" stroke="#FF7733" stroke-width="3" />
  <path d="M120 120 L130 125" fill="#FF9966" stroke="#FF7733" stroke-width="3" />

  <!-- Face -->
  <circle cx="60" cy="75" r="5" fill="#333333" />
  <circle cx="90" cy="75" r="5" fill="#333333" />

  <!-- Nose and Mouth -->
  <path d="M65 85 Q75 92 85 85" fill="#FFFFFF" />
  <ellipse cx="75" cy="85" rx="5" ry="3" fill="#333333" />
  <path d="M75 88 Q75 95 80 93" stroke="#333333" stroke-width="1.5" fill="none" />
  <path d="M75 88 Q75 95 70 93" stroke="#333333" stroke-width="1.5" fill="none" />

  <!-- White parts -->
  <path d="M55 100 Q75 110 95 100 Q85 120 65 120 Z" fill="#FFFFFF" />

  <!-- Book -->
  <rect x="45" y="110" width="60" height="10" rx="2" fill="#6799c6" />
  <rect x="45" y="110" width="30" height="10" rx="2" fill="#c8b8df" />
  <line x1="75" y1="110" x2="75" y2="120" stroke="#333333" stroke-width="1" />
</svg>
