<svg width="400" height="400" viewBox="0 0 400 400" fill="none" xmlns="http://www.w3.org/2000/svg">
  <g opacity="0.9">
    <!-- Flower petals -->
    <path d="M200 110C220 90 250 100 240 130C230 160 250 170 270 150C290 130 320 140 310 170C300 200 310 220 340 210C370 200 390 220 370 250C350 280 360 300 390 300C420 300 430 330 400 350C370 370 370 390 400 410C430 430 410 450 380 440C350 430 330 440 340 470C350 500 320 510 300 490C280 470 260 470 250 500C240 530 210 530 200 500C190 470 170 470 150 490C130 510 100 500 110 470C120 440 100 430 70 440C40 450 20 430 50 410C80 390 80 370 50 350C20 330 30 300 60 300C90 300 100 280 80 250C60 220 80 200 110 210C140 220 150 200 140 170C130 140 160 130 180 150C200 170 220 160 210 130C200 100 230 90 250 110C270 130 270 110 250 90C230 70 250 50 270 70C290 90 310 80 300 50C290 20 320 10 340 30C360 50 380 40 370 10C360 -20 390 -30 410 0C430 30 450 30 460 0C470 -30 500 -20 490 10C480 40 500 50 520 30C540 10 570 20 560 50C550 80 570 90 590 70C610 50 630 70 610 90C590 110 590 130 620 120C650 110 660 140 630 150C600 160 590 180 620 190C650 200 650 230 620 230C590 230 580 250 610 260C640 270 630 300 600 290C570 280 560 300 580 320C600 340 580 360 550 350C520 340 510 360 530 380C550 400 520 420 500 400C480 380 460 390 470 420C480 450 450 460 430 440C410 420 390 430 400 460C410 490 380 500 360 480C340 460 320 470 330 500C340 530 310 540 290 520C270 500 250 500 250 530C250 560 220 560 220 530C220 500 200 500 180 520C160 540 130 530 140 500C150 470 130 460 110 480C90 500 60 490 70 460C80 430 60 420 40 440C20 460 -10 450 0 420C10 390 -10 380 -30 400C-50 420 -80 410 -70 380C-60 350 -80 340 -100 350C-120 360 -140 340 -120 320C-100 300 -110 280 -140 290C-170 300 -180 270 -150 260C-120 250 -130 230 -160 230C-190 230 -190 200 -160 190C-130 180 -140 160 -170 150C-200 140 -190 110 -160 120C-130 130 -130 110 -150 90C-170 70 -150 50 -130 70C-110 90 -90 80 -100 50C-110 20 -80 10 -60 30C-40 50 -20 40 -30 10C-40 -20 -10 -30 10 0C30 30 50 30 60 0C70 -30 100 -20 90 10C80 40 100 50 120 30C140 10 170 20 160 50C150 80 170 90 190 70C210 50 230 70 210 90C190 110 190 130 200 110Z" fill="#c8b8df" />

    <!-- Center of flower -->
    <circle cx="200" cy="190" r="40" fill="#9a5a8e" />

    <!-- Add some details -->
    <circle cx="200" cy="190" r="28" fill="#8b4c7c" />
    <circle cx="200" cy="190" r="16" fill="#7a3e6a" />

    <!-- Add some shine effect -->
    <path d="M180 170C185 165 195 165 200 170C205 175 215 175 220 170C225 165 225 175 220 180C215 185 215 195 220 200C225 205 215 205 210 200C205 195 195 195 190 200C185 205 185 195 190 190C195 185 195 175 190 170C185 165 175 175 180 170Z" fill="#ffffff" opacity="0.6" />
  </g>
</svg>
