<svg width="300" height="50" viewBox="0 0 300 50" fill="none" xmlns="http://www.w3.org/2000/svg">
  <!-- English (UK) Flag -->
  <g transform="translate(10, 10)">
    <rect width="30" height="30" rx="15" fill="#ffffff" />
    <path d="M5 5 L25 25 M25 5 L5 25" stroke="#CC0000" stroke-width="3" />
    <path d="M15 5 V25 M5 15 H25" stroke="#CC0000" stroke-width="5" />
  </g>

  <!-- Spanish Flag -->
  <g transform="translate(50, 10)">
    <rect width="30" height="30" rx="15" fill="#C60B1E" />
    <rect x="0" y="7.5" width="30" height="15" fill="#FFC400" />
  </g>

  <!-- French Flag -->
  <g transform="translate(90, 10)">
    <rect width="30" height="30" rx="15" fill="#ffffff" />
    <rect x="0" y="0" width="10" height="30" fill="#002654" />
    <rect x="20" y="0" width="10" height="30" fill="#ED2939" />
  </g>

  <!-- Mandarin/Chinese Flag -->
  <g transform="translate(130, 10)">
    <rect width="30" height="30" rx="15" fill="#DE2910" />
    <path d="M7 7 L10 15 L3 10 H11 L4 15 Z" fill="#FFDE00" />
    <circle cx="15" cy="7" r="1" fill="#FFDE00" />
    <circle cx="18" cy="9" r="1" fill="#FFDE00" />
    <circle cx="19" cy="13" r="1" fill="#FFDE00" />
    <circle cx="17" cy="16" r="1" fill="#FFDE00" />
  </g>

  <!-- Arabic/UAE Flag -->
  <g transform="translate(170, 10)">
    <rect width="30" height="30" rx="15" fill="#ffffff" />
    <rect x="0" y="0" width="10" height="30" fill="#00732F" />
    <rect x="10" y="0" width="10" height="10" fill="#000000" />
    <rect x="20" y="0" width="10" height="30" fill="#FF0000" />
  </g>

  <!-- Hindi/Indian Flag -->
  <g transform="translate(210, 10)">
    <rect width="30" height="30" rx="15" fill="#ffffff" />
    <rect x="0" y="0" width="30" height="10" fill="#FF9933" />
    <rect x="0" y="20" width="30" height="10" fill="#138808" />
    <circle cx="15" cy="15" r="3" fill="#000080" />
  </g>

  <!-- Portuguese Flag -->
  <g transform="translate(250, 10)">
    <rect width="30" height="30" rx="15" fill="#FF0000" />
    <rect x="0" y="0" width="10" height="30" fill="#006600" />
  </g>
</svg>
