<svg width="400" height="400" viewBox="0 0 400 400" fill="none" xmlns="http://www.w3.org/2000/svg">
  <g opacity="0.8">
    <path d="M200 50L230 100L200 150L170 100L200 50Z" fill="#c8b8df" />
    <path d="M230 100L260 150L230 200L200 150L230 100Z" fill="#6799c6" />
    <path d="M170 100L200 150L170 200L140 150L170 100Z" fill="#9a5a8e" />
    <path d="M200 150L230 200L200 250L170 200L200 150Z" fill="#4667a3" />
    <path d="M200 250L230 300L200 350L170 300L200 250Z" fill="#c8b8df" />
    <path d="M170 200L200 250L170 300L140 250L170 200Z" fill="#6799c6" />
    <path d="M230 200L260 250L230 300L200 250L230 200Z" fill="#9a5a8e" />
  </g>
</svg>
